<mxfile host="app.diagrams.net" modified="2023-09-22T15:31:06.383Z" agent="Mozilla/5.0 (Windows NT 10.0; Win64; x64) AppleWebKit/537.36 (KHTML, like Gecko) Chrome/116.0.0.0 Safari/537.36" etag="aZ2XlHBdqrQRvFxZvv5H" version="21.8.0" type="github">
  <diagram name="Page-1" id="zwj0s1HOtcCHivMV9wyS">
    <mxGraphModel dx="1862" dy="1413" grid="0" gridSize="10" guides="1" tooltips="1" connect="1" arrows="1" fold="1" page="0" pageScale="1" pageWidth="850" pageHeight="1100" background="none" math="0" shadow="0">
      <root>
        <mxCell id="0" />
        <mxCell id="1" parent="0" />
        <mxCell id="HcazlHUk9G5i6PrlhO88-3" style="edgeStyle=orthogonalEdgeStyle;rounded=0;orthogonalLoop=1;jettySize=auto;html=1;" edge="1" parent="1">
          <mxGeometry relative="1" as="geometry">
            <mxPoint x="101.0078125" y="-548" as="targetPoint" />
            <mxPoint x="-84" y="-548" as="sourcePoint" />
          </mxGeometry>
        </mxCell>
        <mxCell id="HcazlHUk9G5i6PrlhO88-1" value="&lt;font style=&quot;font-size: 24px;&quot;&gt;&lt;b&gt;STUDENT&lt;/b&gt;&lt;/font&gt;" style="whiteSpace=wrap;html=1;" vertex="1" parent="1">
          <mxGeometry x="-201" y="-561" width="120" height="60" as="geometry" />
        </mxCell>
        <mxCell id="HcazlHUk9G5i6PrlhO88-5" style="edgeStyle=orthogonalEdgeStyle;rounded=0;orthogonalLoop=1;jettySize=auto;html=1;" edge="1" parent="1">
          <mxGeometry relative="1" as="geometry">
            <mxPoint x="-82.7421875" y="-524" as="targetPoint" />
            <mxPoint x="100" y="-524" as="sourcePoint" />
          </mxGeometry>
        </mxCell>
        <mxCell id="HcazlHUk9G5i6PrlhO88-2" value="&lt;font style=&quot;&quot;&gt;&lt;b style=&quot;&quot;&gt;&lt;font style=&quot;font-size: 18px;&quot;&gt;LOGIN&lt;br&gt;2&lt;/font&gt;&lt;br&gt;&lt;/b&gt;&lt;/font&gt;" style="ellipse;whiteSpace=wrap;html=1;" vertex="1" parent="1">
          <mxGeometry x="99" y="-592" width="105" height="95" as="geometry" />
        </mxCell>
        <mxCell id="HcazlHUk9G5i6PrlhO88-6" value="&lt;b&gt;&lt;font style=&quot;font-size: 14px;&quot;&gt;Email / pwd&lt;/font&gt;&lt;/b&gt;" style="text;html=1;align=center;verticalAlign=middle;resizable=0;points=[];autosize=1;strokeColor=none;fillColor=none;" vertex="1" parent="1">
          <mxGeometry x="-48" y="-572" width="95" height="29" as="geometry" />
        </mxCell>
        <mxCell id="HcazlHUk9G5i6PrlhO88-7" value="&lt;b&gt;&lt;font style=&quot;font-size: 14px;&quot;&gt;Rejected&lt;/font&gt;&lt;/b&gt;" style="text;html=1;align=center;verticalAlign=middle;resizable=0;points=[];autosize=1;strokeColor=none;fillColor=none;" vertex="1" parent="1">
          <mxGeometry x="-29" y="-526" width="76" height="29" as="geometry" />
        </mxCell>
        <mxCell id="HcazlHUk9G5i6PrlhO88-12" style="edgeStyle=orthogonalEdgeStyle;rounded=0;orthogonalLoop=1;jettySize=auto;html=1;" edge="1" parent="1" source="HcazlHUk9G5i6PrlhO88-8" target="HcazlHUk9G5i6PrlhO88-2">
          <mxGeometry relative="1" as="geometry" />
        </mxCell>
        <mxCell id="HcazlHUk9G5i6PrlhO88-8" value="&lt;b&gt;&lt;font style=&quot;font-size: 18px;&quot;&gt;DATABASE 1&lt;br&gt;REGISTRATION&lt;br&gt;DETAILS&lt;/font&gt;&lt;/b&gt;" style="shape=cylinder3;whiteSpace=wrap;html=1;boundedLbl=1;backgroundOutline=1;size=15;" vertex="1" parent="1">
          <mxGeometry x="279" y="-609" width="138" height="128" as="geometry" />
        </mxCell>
        <mxCell id="HcazlHUk9G5i6PrlhO88-10" value="&lt;b&gt;&lt;font style=&quot;font-size: 14px;&quot;&gt;Read&lt;/font&gt;&lt;/b&gt;" style="text;html=1;align=center;verticalAlign=middle;resizable=0;points=[];autosize=1;strokeColor=none;fillColor=none;" vertex="1" parent="1">
          <mxGeometry x="207" y="-537" width="52" height="29" as="geometry" />
        </mxCell>
        <mxCell id="HcazlHUk9G5i6PrlhO88-11" value="" style="endArrow=none;html=1;rounded=0;" edge="1" parent="1">
          <mxGeometry width="50" height="50" relative="1" as="geometry">
            <mxPoint x="160" y="40" as="sourcePoint" />
            <mxPoint x="154" y="-497" as="targetPoint" />
          </mxGeometry>
        </mxCell>
        <mxCell id="HcazlHUk9G5i6PrlhO88-13" value="&lt;font style=&quot;font-size: 14px;&quot;&gt;&lt;b&gt;Accepted&lt;/b&gt;&lt;/font&gt;" style="text;html=1;align=center;verticalAlign=middle;resizable=0;points=[];autosize=1;strokeColor=none;fillColor=none;rotation=90;" vertex="1" parent="1">
          <mxGeometry x="132" y="-458" width="81" height="29" as="geometry" />
        </mxCell>
        <mxCell id="HcazlHUk9G5i6PrlhO88-17" style="edgeStyle=orthogonalEdgeStyle;rounded=0;orthogonalLoop=1;jettySize=auto;html=1;" edge="1" parent="1">
          <mxGeometry relative="1" as="geometry">
            <mxPoint x="156.0078125" y="-353" as="targetPoint" />
            <mxPoint x="319" y="-353" as="sourcePoint" />
          </mxGeometry>
        </mxCell>
        <mxCell id="HcazlHUk9G5i6PrlhO88-22" style="edgeStyle=orthogonalEdgeStyle;rounded=0;orthogonalLoop=1;jettySize=auto;html=1;" edge="1" parent="1" source="HcazlHUk9G5i6PrlhO88-14" target="HcazlHUk9G5i6PrlhO88-21">
          <mxGeometry relative="1" as="geometry" />
        </mxCell>
        <mxCell id="HcazlHUk9G5i6PrlhO88-14" value="&lt;b&gt;&lt;font style=&quot;font-size: 18px;&quot;&gt;3.1&lt;br&gt;APPLY&lt;br&gt;&amp;nbsp;JOB&lt;/font&gt;&lt;/b&gt;" style="ellipse;whiteSpace=wrap;html=1;" vertex="1" parent="1">
          <mxGeometry x="323" y="-406" width="80" height="80" as="geometry" />
        </mxCell>
        <mxCell id="HcazlHUk9G5i6PrlhO88-16" value="" style="endArrow=classic;html=1;rounded=0;entryX=-0.006;entryY=0.294;entryDx=0;entryDy=0;entryPerimeter=0;" edge="1" parent="1" target="HcazlHUk9G5i6PrlhO88-14">
          <mxGeometry width="50" height="50" relative="1" as="geometry">
            <mxPoint x="157" y="-380" as="sourcePoint" />
            <mxPoint x="314" y="-378" as="targetPoint" />
          </mxGeometry>
        </mxCell>
        <mxCell id="HcazlHUk9G5i6PrlhO88-18" value="&lt;b&gt;&lt;font style=&quot;font-size: 14px;&quot;&gt;Details&lt;/font&gt;&lt;/b&gt;" style="text;html=1;align=center;verticalAlign=middle;resizable=0;points=[];autosize=1;strokeColor=none;fillColor=none;" vertex="1" parent="1">
          <mxGeometry x="204" y="-412" width="64" height="29" as="geometry" />
        </mxCell>
        <mxCell id="HcazlHUk9G5i6PrlhO88-20" value="&lt;b&gt;&lt;font style=&quot;font-size: 14px;&quot;&gt;Response&lt;/font&gt;&lt;/b&gt;" style="text;html=1;align=center;verticalAlign=middle;resizable=0;points=[];autosize=1;strokeColor=none;fillColor=none;" vertex="1" parent="1">
          <mxGeometry x="204" y="-355" width="85" height="29" as="geometry" />
        </mxCell>
        <mxCell id="HcazlHUk9G5i6PrlhO88-21" value="&lt;b&gt;&lt;font style=&quot;font-size: 18px;&quot;&gt;DATABASE 2&lt;br&gt;JOB&lt;br&gt;&lt;/font&gt;&lt;/b&gt;" style="shape=cylinder3;whiteSpace=wrap;html=1;boundedLbl=1;backgroundOutline=1;size=15;" vertex="1" parent="1">
          <mxGeometry x="469" y="-428" width="113" height="124" as="geometry" />
        </mxCell>
      </root>
    </mxGraphModel>
  </diagram>
</mxfile>
